<?xml version="1.0" standalone="no"?>
<!DOCTYPE svg PUBLIC "-//W3C//DTD SVG 20010904//EN"
 "http://www.w3.org/TR/2001/REC-SVG-20010904/DTD/svg10.dtd">
<svg version="1.0" xmlns="http://www.w3.org/2000/svg"
 width="600.000000pt" height="600.000000pt" viewBox="0 0 600.000000 600.000000"
 preserveAspectRatio="xMidYMid meet">
<metadata>
Created by potrace 1.15, written by Peter Selinger 2001-2017
</metadata>
<g transform="translate(0.000000,600.000000) scale(0.100000,-0.100000)"
fill="#000000" stroke="none">
<path d="M2660 5856 c-524 -67 -1018 -268 -1422 -580 -160 -123 -391 -354
-514 -514 -243 -314 -444 -743 -528 -1122 -53 -242 -61 -325 -61 -635 0 -310
8 -393 61 -635 84 -379 285 -808 528 -1122 123 -160 354 -391 514 -514 314
-243 743 -444 1122 -528 242 -53 325 -61 635 -61 310 0 393 8 635 61 379 84
808 285 1122 528 160 123 391 354 514 514 242 313 446 747 528 1122 53 244 61
325 61 635 0 310 -8 393 -61 635 -84 379 -285 808 -528 1122 -123 160 -354
391 -514 514 -143 110 -300 207 -487 299 -276 137 -541 221 -855 271 -142 22
-603 28 -750 10z m725 -495 c493 -88 914 -302 1273 -645 301 -288 543 -703
647 -1111 60 -233 70 -322 70 -600 0 -278 -10 -367 -70 -600 -211 -827 -883
-1499 -1710 -1710 -233 -60 -322 -70 -600 -70 -278 0 -367 10 -600 70 -408
104 -823 346 -1111 647 -349 365 -567 801 -651 1303 -26 157 -26 563 0 720
144 862 701 1551 1511 1869 176 70 343 110 621 150 17 2 136 3 265 1 188 -2
259 -7 355 -24z"/>
<path d="M2940 4773 c-8 -3 -391 -257 -851 -564 -713 -475 -838 -562 -852
-592 -15 -31 -17 -94 -17 -612 0 -518 2 -581 17 -612 14 -30 140 -118 857
-597 l841 -561 60 0 60 0 841 561 c717 479 843 567 857 597 15 31 17 94 17
612 0 518 -2 581 -17 612 -14 30 -140 118 -857 596 -802 535 -843 561 -891
564 -27 1 -57 0 -65 -4z m-100 -790 l0 -348 -324 -217 c-179 -120 -328 -218
-333 -218 -4 0 -123 78 -264 172 l-256 173 586 392 c322 215 587 392 589 392
1 1 2 -155 2 -346z m1231 -610 c-140 -95 -259 -173 -264 -173 -5 0 -154 98
-333 218 l-324 217 0 348 0 347 588 -392 589 -393 -256 -172z m-558 -374 c-5
-3 -123 -83 -263 -176 l-255 -170 -256 171 c-141 94 -256 176 -256 181 0 6
115 87 256 181 l256 171 263 -175 c144 -97 259 -179 255 -183z m-1616 5 c-1
-1 -84 -56 -184 -123 l-183 -121 0 245 0 245 184 -122 c101 -68 183 -123 183
-124z m2563 1 l0 -245 -184 122 -184 123 182 122 c99 67 182 122 184 122 1 1
2 -109 2 -244z m-1944 -412 l323 -218 1 -348 0 -347 -588 392 -589 392 256
173 c141 95 260 173 264 173 5 0 154 -98 333 -217z m1555 44 l256 -173 -589
-392 -588 -392 0 347 1 348 322 217 c177 119 327 217 332 218 6 0 125 -78 266
-173z"/>
</g>
</svg>
