<?xml version="1.0" standalone="no"?>
<!DOCTYPE svg PUBLIC "-//W3C//DTD SVG 20010904//EN"
 "http://www.w3.org/TR/2001/REC-SVG-20010904/DTD/svg10.dtd">
<svg version="1.0" xmlns="http://www.w3.org/2000/svg"
 width="480.000000pt" height="480.000000pt" viewBox="0 0 480.000000 480.000000"
 preserveAspectRatio="xMidYMid meet">
<metadata>
Created by potrace 1.15, written by Peter Selinger 2001-2017
</metadata>
<g transform="translate(0.000000,480.000000) scale(0.100000,-0.100000)"
fill="#000000" stroke="none">
<path d="M2480 2545 l0 -1185 165 0 165 0 0 40 c0 22 2 40 4 40 2 0 41 -20 87
-44 148 -78 301 -106 471 -86 194 22 340 92 479 230 133 131 197 244 230 403
92 446 -162 862 -596 978 -61 16 -109 21 -205 21 -151 0 -243 -21 -370 -84
-47 -24 -88 -44 -92 -46 -5 -2 -8 204 -8 457 l0 461 -165 0 -165 0 0 -1185z
m959 31 c76 -26 153 -80 207 -144 157 -190 145 -468 -27 -640 -94 -95 -206
-142 -337 -142 -180 0 -338 93 -419 246 -80 150 -82 298 -7 447 107 210 358
311 583 233z"/>
<path d="M1380 2943 c-274 -29 -529 -201 -647 -438 -131 -262 -121 -559 28
-813 19 -31 75 -97 124 -147 144 -144 288 -214 486 -235 267 -29 496 55 685
251 93 97 160 211 198 337 l7 22 -183 0 -183 0 -22 -38 c-106 -185 -331 -273
-544 -214 -85 24 -141 57 -207 122 -224 225 -169 591 113 755 94 55 249 73
355 42 114 -33 243 -134 291 -228 l19 -39 181 0 181 0 -7 33 c-11 53 -92 207
-146 280 -48 63 -164 163 -249 215 -57 34 -208 80 -300 91 -83 11 -111 11
-180 4z"/>
</g>
</svg>
