<?xml version="1.0" encoding="UTF-8" standalone="no"?>
<svg
   xmlns:dc="http://purl.org/dc/elements/1.1/"
   xmlns:cc="http://creativecommons.org/ns#"
   xmlns:rdf="http://www.w3.org/1999/02/22-rdf-syntax-ns#"
   xmlns:svg="http://www.w3.org/2000/svg"
   xmlns="http://www.w3.org/2000/svg"
   xml:space="preserve"
   viewBox="0 0 377.54799 430.114"
   height="430.11401"
   width="377.548"
   y="0px"
   x="0px"
   id="Capa_1"
   version="1.1"><metadata
   id="metadata40"><rdf:RDF><cc:Work
       rdf:about=""><dc:format>image/svg+xml</dc:format><dc:type
         rdf:resource="http://purl.org/dc/dcmitype/StillImage" /></cc:Work></rdf:RDF></metadata><defs
   id="defs38" />
<g
   transform="translate(-26.283)"
   id="g3">
	<path
   d="M 309.033,79.982 C 287.005,66.292 266.179,60.92 245.402,47.226 232.521,38.529 214.651,17.812 199.658,0 c -2.886,28.593 -11.625,40.221 -21.62,48.512 -21.165,16.547 -34.485,21.51 -52.799,31.47 -15.385,7.88 -98.956,57.585 -98.956,164.513 0,106.899 90.238,185.619 190.424,185.619 100.223,0 187.124,-72.508 187.124,-182.319 0,-109.813 -81.497,-159.531 -94.798,-167.813 z m 1.69,308.333 c -2.091,2.059 -21.217,15.322 -43.656,17.413 -22.458,2.054 -52.821,3.3 -71.103,-13.278 -2.9,-2.912 -2.098,-7.023 0,-8.676 2.074,-1.685 3.733,-2.931 6.242,-2.931 2.509,0 2.056,0 3.33,0.83 8.312,6.642 20.777,12.004 47.371,12.004 26.625,0 45.354,-7.416 53.652,-13.665 3.743,-2.894 5.404,-0.401 5.834,1.261 0.402,1.646 1.237,4.153 -1.67,7.042 z m -72.06,-34.882 c 4.573,-4.158 12.078,-10.79 19.153,-13.679 7.066,-2.913 10.771,-2.492 17.446,-2.492 6.646,0 13.739,0.415 18.715,3.752 4.975,3.318 7.901,10.753 9.529,14.869 1.681,4.173 0,6.646 -3.295,8.321 -2.893,1.639 -3.322,0.817 -6.234,-4.555 -2.89,-5.381 -5.396,-10.79 -19.957,-10.79 -14.542,0 -19.125,4.989 -26.191,10.79 -7.066,5.787 -9.567,7.864 -12.074,4.555 -2.487,-3.308 -1.656,-6.64 2.908,-10.771 z m 150.074,-78.99 c 0,12.835 -4.145,36.035 -14.15,50.535 -9.945,14.524 -16.176,19.919 -27.862,19.079 -14.981,-1.26 -44.897,-47.66 -64.023,-48.51 -24.082,-0.816 -76.495,50.181 -117.671,50.181 -24.957,0 -32.413,-3.725 -40.723,-9.139 -12.494,-8.699 -18.736,-21.953 -18.325,-40.192 0.446,-32.343 30.759,-62.558 69.036,-62.959 48.617,-0.43 82.341,48.024 106.843,47.632 20.802,-0.392 60.737,-41.023 80.274,-41.023 20.782,-0.001 26.601,21.515 26.601,34.396 z"
   id="Drupal" />
</g>
<g
   transform="translate(-26.283)"
   id="g5">
</g>
<g
   transform="translate(-26.283)"
   id="g7">
</g>
<g
   transform="translate(-26.283)"
   id="g9">
</g>
<g
   transform="translate(-26.283)"
   id="g11">
</g>
<g
   transform="translate(-26.283)"
   id="g13">
</g>
<g
   transform="translate(-26.283)"
   id="g15">
</g>
<g
   transform="translate(-26.283)"
   id="g17">
</g>
<g
   transform="translate(-26.283)"
   id="g19">
</g>
<g
   transform="translate(-26.283)"
   id="g21">
</g>
<g
   transform="translate(-26.283)"
   id="g23">
</g>
<g
   transform="translate(-26.283)"
   id="g25">
</g>
<g
   transform="translate(-26.283)"
   id="g27">
</g>
<g
   transform="translate(-26.283)"
   id="g29">
</g>
<g
   transform="translate(-26.283)"
   id="g31">
</g>
<g
   transform="translate(-26.283)"
   id="g33">
</g>
</svg>