<?xml version="1.0" standalone="no"?>
<!DOCTYPE svg PUBLIC "-//W3C//DTD SVG 20010904//EN"
 "http://www.w3.org/TR/2001/REC-SVG-20010904/DTD/svg10.dtd">
<svg version="1.0" xmlns="http://www.w3.org/2000/svg"
 width="512.000000pt" height="512.000000pt" viewBox="0 0 512.000000 512.000000"
 preserveAspectRatio="xMidYMid meet">
<metadata>
Created by potrace 1.15, written by Peter Selinger 2001-2017
</metadata>
<g transform="translate(0.000000,512.000000) scale(0.100000,-0.100000)"
fill="#000000" stroke="none">
<path d="M624 5100 c-138 -49 -247 -162 -297 -310 l-22 -65 -3 -1037 -3 -1036
-56 34 c-94 56 -172 41 -193 -37 -21 -78 9 -136 141 -266 159 -157 284 -251
493 -375 109 -64 287 -154 408 -206 47 -20 47 -21 37 -54 -104 -362 -116 -749
-33 -1036 123 -425 467 -712 852 -712 176 0 295 43 398 145 34 33 73 84 88
113 58 114 58 121 63 705 3 295 9 537 13 537 5 0 31 -5 58 -11 l50 -12 5 -526
c5 -570 6 -580 63 -693 15 -29 54 -80 88 -113 103 -102 222 -145 398 -145 423
0 779 332 879 820 26 127 36 377 19 518 -12 105 -46 285 -74 390 l-15 54 47
20 c121 52 299 142 408 206 209 124 334 218 493 375 131 129 159 182 141 262
-19 82 -97 99 -193 41 l-57 -35 0 1021 c0 1118 2 1075 -60 1197 -55 110 -148
191 -265 231 -57 20 -82 20 -1939 19 -1789 0 -1883 -1 -1932 -19z m3662 -261
c125 -23 206 -88 247 -199 32 -87 37 -227 37 -1191 l0 -956 -97 -46 c-259
-121 -468 -186 -739 -229 -125 -20 -179 -22 -529 -23 -385 -1 -391 -1 -437
-24 -80 -39 -138 -120 -138 -194 0 -25 -17 -14 -140 92 -152 131 -127 125
-585 126 -341 1 -394 3 -515 23 -274 44 -470 104 -722 221 l-88 40 0 948 c0
522 5 1000 10 1065 15 177 55 265 141 309 96 49 42 47 1825 48 1163 1 1688 -2
1730 -10z"/>
<path d="M1763 3580 c-216 -39 -405 -192 -475 -385 -33 -91 -37 -252 -9 -345
85 -280 364 -455 673 -420 506 57 725 628 374 975 -78 77 -154 122 -261 154
-80 25 -224 35 -302 21z"/>
<path d="M3204 3580 c-140 -25 -267 -93 -358 -192 -328 -352 -103 -902 392
-958 267 -30 518 98 631 322 50 99 64 167 59 287 -9 195 -104 350 -283 459
-115 71 -307 106 -441 82z"/>
</g>
</svg>
