<?xml version="1.0" standalone="no"?>
<!DOCTYPE svg PUBLIC "-//W3C//DTD SVG 20010904//EN"
 "http://www.w3.org/TR/2001/REC-SVG-20010904/DTD/svg10.dtd">
<svg version="1.0" xmlns="http://www.w3.org/2000/svg"
 width="250.000000pt" height="114.000000pt" viewBox="0 0 250.000000 114.000000"
 preserveAspectRatio="xMidYMid meet">
<metadata>
Created by potrace 1.15, written by Peter Selinger 2001-2017
</metadata>
<g transform="translate(0.000000,114.000000) scale(0.100000,-0.100000)"
fill="#000000" stroke="none">
<path d="M1765 1119 c-124 -43 -356 -164 -530 -278 l-30 -19 -105 65 c-125 77
-320 174 -409 203 -220 73 -461 -11 -594 -206 -74 -109 -91 -166 -91 -314 -1
-148 16 -203 91 -314 95 -139 272 -235 434 -236 126 0 399 118 649 282 24 16
27 15 135 -53 146 -91 320 -180 428 -218 78 -27 101 -31 197 -31 89 0 121 4
173 23 94 34 154 73 222 141 277 281 195 751 -160 927 l-88 44 -131 3 c-111 2
-140 -1 -191 -19z m-1080 -117 c119 -42 435 -210 435 -231 0 -4 -33 -30 -74
-58 l-74 -51 -63 42 c-144 96 -276 156 -344 156 -97 0 -211 -74 -256 -167 -32
-67 -32 -179 0 -246 45 -91 159 -167 252 -167 71 0 262 89 376 176 l32 25 76
-53 c41 -29 75 -55 75 -59 0 -22 -330 -196 -446 -235 -293 -98 -594 119 -597
431 -2 238 166 430 407 465 67 9 115 3 201 -28z m1378 -22 c175 -54 297 -223
297 -411 0 -294 -283 -498 -559 -404 -79 27 -298 138 -399 202 l-63 40 78 55
78 55 90 -60 c109 -71 181 -109 257 -132 50 -16 64 -17 113 -6 73 16 132 62
167 130 55 106 29 248 -60 321 -48 40 -130 64 -187 56 -56 -9 -177 -68 -291
-143 l-90 -60 -73 52 c-39 29 -74 55 -76 57 -7 6 180 117 294 174 194 97 293
114 424 74z m-90 -254 c42 -17 83 -66 98 -116 21 -71 -20 -158 -93 -196 -46
-24 -107 -17 -183 19 -56 27 -204 115 -224 133 -6 6 23 26 123 86 148 88 208
104 279 74z m-1323 -42 c61 -28 190 -106 190 -114 0 -8 -129 -86 -190 -114
-66 -31 -114 -33 -157 -6 -92 56 -94 177 -4 237 44 30 93 29 161 -3z m768
-113 c1 -3 -34 -31 -78 -60 l-80 -54 -80 54 c-44 30 -80 56 -80 59 1 3 37 30
82 61 l81 56 76 -55 c42 -29 77 -57 79 -61z"/>
</g>
</svg>
