<?xml version="1.0" encoding="UTF-8" standalone="no"?>
<svg
   xmlns:dc="http://purl.org/dc/elements/1.1/"
   xmlns:cc="http://creativecommons.org/ns#"
   xmlns:rdf="http://www.w3.org/1999/02/22-rdf-syntax-ns#"
   xmlns:svg="http://www.w3.org/2000/svg"
   xmlns="http://www.w3.org/2000/svg"
   viewBox="0 0 755.90668 755.90668"
   height="755.90668"
   width="755.90668"
   xml:space="preserve"
   id="svg2"
   version="1.1"><metadata
     id="metadata8"><rdf:RDF><cc:Work
         rdf:about=""><dc:format>image/svg+xml</dc:format><dc:type
           rdf:resource="http://purl.org/dc/dcmitype/StillImage" /></cc:Work></rdf:RDF></metadata><defs
     id="defs6"><clipPath
       id="clipPath18"
       clipPathUnits="userSpaceOnUse"><path
         id="path16"
         d="M 0,566.93 H 566.93 V 0 H 0 Z" /></clipPath><clipPath
       id="clipPath110"
       clipPathUnits="userSpaceOnUse"><path
         id="path108"
         d="m 281.586,387.746 c -0.398,-0.298 -0.478,-0.861 -0.182,-1.26 v 0 c 0.16,-0.213 0.397,-0.327 0.642,-0.35 v 0 c -3.33,-14.108 -2.238,-28.567 0.827,-42.73 v 0 c -0.002,-0.021 -0.012,-0.04 -0.012,-0.061 v 0 c 0.096,-4.426 -4.822,-11.586 -10.514,-19.877 v 0 c -0.079,-0.116 -0.162,-0.236 -0.242,-0.353 v 0 c -4.557,4.081 -9.623,7.103 -15.337,8.476 v 0 c -11.067,2.659 -23.594,-1.242 -37.231,-11.605 v 0 l 0.012,-0.015 c -0.387,-0.295 -0.523,-0.822 -0.284,-1.26 v 0 c 18.03,-32.958 53.942,-47.348 77.705,-56.869 v 0 c 2.916,-1.168 5.67,-2.272 8.212,-3.335 v 0 c 0.127,-0.053 0.257,-0.077 0.386,-0.077 v 0 c 0.391,0 0.762,0.23 0.922,0.614 v 0 c 0.082,0.195 0.079,0.394 0.039,0.585 v 0 c 0.559,3.94 0.374,8.235 -0.345,12.853 v 0 c 0.081,0.028 0.161,0.062 0.234,0.113 v 0 c 22.742,15.432 6.676,47.621 -5.055,71.125 v 0 c -5.162,10.344 -9.621,19.276 -9.98,24.764 v 0 c -0.038,0.551 -0.5,0.961 -1.065,0.933 v 0 c -0.55,-0.036 -0.968,-0.512 -0.931,-1.063 v 0 c 0.386,-5.89 4.927,-14.99 10.187,-25.527 v 0 c 11.932,-23.906 26.735,-53.598 6.246,-68.189 v 0 c -1.742,9.351 -5.459,19.949 -9.525,31.539 v 0 c -8.859,25.255 -18.901,53.881 -11.992,80.808 v 0 c 0.033,0.125 0.033,0.249 0.02,0.37 v 0 c 2.927,1.638 6.768,2.676 9.98,2.6 v 0 c 6.906,-0.158 10.527,-5.083 11.533,-9.252 v 0 c 0.121,-0.501 0.207,-0.943 0.285,-1.34 v 0 c 0.334,-1.705 0.576,-2.936 2.644,-4.437 v 0 c 1.944,-1.412 3.657,-3.324 4.874,-4.85 v 0 c -2.856,1.185 -7.417,3.171 -11.6,5.313 v 0 c 0.051,1.029 0.394,2.14 0.978,2.81 v 0 l 0.014,-0.036 c 0.201,-0.456 0.731,-0.659 1.186,-0.465 v 0 c 0.455,0.199 0.664,0.729 0.464,1.186 v 0 l -0.452,1.038 c -0.192,0.442 -0.704,0.652 -1.149,0.479 v 0 c -2.006,-0.775 -2.947,-3.407 -2.838,-5.605 v 0 c 0.016,-0.32 0.2,-0.607 0.485,-0.755 v 0 c 3.644,-1.891 7.538,-3.632 10.165,-4.761 v 0 c 2.872,-1.233 4.27,-1.833 5.016,-2.035 v 0 c 0.102,-0.048 0.211,-0.069 0.346,-0.072 v 0 c 0.051,-0.006 0.098,-0.009 0.14,-0.009 v 0 c 0.302,0 0.413,0.15 0.583,0.379 v 0 c 0.264,0.355 0.23,0.851 -0.081,1.168 v 0 c 0,0 -0.001,0.003 -0.002,0.004 v 0 c -0.041,0.054 -0.099,0.137 -0.175,0.246 v 0 c -0.873,1.232 -3.532,4.979 -6.899,7.422 v 0 c -1.492,1.085 -1.622,1.74 -1.934,3.325 v 0 c -0.081,0.422 -0.173,0.888 -0.3,1.417 v 0 c -1.246,5.168 -5.822,10.46 -13.241,10.629 v 0 c -0.138,0.003 -0.276,0.005 -0.416,0.005 v 0 c -4.172,0 -9.166,-1.637 -12.343,-4.013 m 17.193,-106.44 c -6.681,13.865 -14.486,30.05 -25.193,40.43 v 0 c 0.136,0.199 0.273,0.401 0.41,0.599 v 0 c 4.324,6.299 8.207,11.963 9.927,16.537 v 0 c 2.813,-11.477 6.751,-22.714 10.483,-33.356 v 0 c 4.737,-13.503 8.988,-25.638 10.145,-35.862 v 0 c -1.864,3.55 -3.776,7.514 -5.772,11.652 m -49.593,42.432 c 1.127,0.276 2.096,1.043 2.596,2.119 v 0 c 0.439,0.939 0.485,1.992 0.133,2.966 v 0 c -0.226,0.617 -0.606,1.143 -1.087,1.566 v 0 c 1.856,-0.075 3.679,-0.312 5.473,-0.742 v 0 c 5.433,-1.307 10.285,-4.23 14.664,-8.197 v 0 c -1.693,-2.474 -3.434,-5.051 -5.111,-7.695 v 0 c -5.225,4.434 -10.776,7.969 -16.668,9.983 m -3.772,6.369 c -0.262,-0.287 -0.486,-0.611 -0.656,-0.973 v 0 c -0.438,-0.937 -0.483,-1.989 -0.13,-2.962 v 0 c 0.194,-0.535 0.505,-1.003 0.896,-1.396 v 0 c -4.996,1.131 -10.225,1.132 -15.694,-0.344 v 0 c 5.467,3.096 10.643,4.981 15.584,5.675 m 1.98,-4.493 c -0.503,0.235 -0.886,0.65 -1.076,1.172 v 0 c -0.187,0.521 -0.164,1.085 0.071,1.588 v 0 c 0.34,0.728 1.08,1.199 1.884,1.199 v 0 c 0.303,0 0.598,-0.066 0.878,-0.196 v 0 c 0.501,-0.234 0.882,-0.649 1.072,-1.169 v 0 c 0.189,-0.522 0.163,-1.086 -0.073,-1.592 v 0 c -0.341,-0.735 -1.12,-1.185 -1.913,-1.186 v 0 c -0.286,0 -0.573,0.059 -0.843,0.184 M 224,320.114 c 6.359,3.059 12.385,3.988 18.102,3.305 v 0 c -0.952,-0.516 -1.744,-1.316 -2.217,-2.33 v 0 c -0.582,-1.242 -0.645,-2.635 -0.178,-3.925 v 0 c 0.132,-0.361 0.309,-0.697 0.51,-1.014 v 0 c -5.366,2.215 -10.791,3.624 -16.217,3.964 m 19.209,-4.043 c -0.759,0.355 -1.334,0.985 -1.621,1.775 v 0 c -0.285,0.786 -0.246,1.636 0.11,2.396 v 0 c 0.511,1.099 1.628,1.81 2.843,1.81 v 0 c 0.461,0 0.906,-0.099 1.328,-0.296 v 0 c 0.758,-0.353 1.334,-0.983 1.619,-1.771 v 0 c 0.287,-0.787 0.249,-1.641 -0.104,-2.398 v 0 c -0.515,-1.101 -1.632,-1.811 -2.847,-1.811 v 0 c -0.459,0 -0.906,0.099 -1.328,0.295 m 2.063,-2.242 c 1.692,0.248 3.187,1.334 3.924,2.912 v 0 c 0.579,1.242 0.639,2.637 0.173,3.927 v 0 c -0.166,0.454 -0.408,0.861 -0.684,1.242 v 0 c 5.694,-1.936 11.068,-5.386 16.16,-9.766 v 0 c -1.585,-2.565 -3.091,-5.183 -4.422,-7.82 v 0 c -4.941,3.658 -10.009,6.908 -15.151,9.505 m 49.832,-35.008 c -7.927,11.175 -17.135,24.159 -27.723,33.607 v 0 c 1.656,2.617 3.377,5.176 5.054,7.633 v 0 c 10.332,-10.144 17.988,-26.021 24.543,-39.624 v 0 c 2.337,-4.846 4.563,-9.459 6.739,-13.47 v 0 c -2.729,3.561 -5.607,7.62 -8.613,11.854 m -73.241,39.377 c 5.6,-0.065 11.231,-1.366 16.814,-3.586 v 0 c -2.951,-0.23 -5.6,-2.02 -6.862,-4.727 v 0 c -0.717,-1.532 -0.94,-3.206 -0.669,-4.839 v 0 c -3.419,4.009 -6.545,8.38 -9.283,13.152 m 14.876,-17.315 c -1.469,0.686 -2.585,1.904 -3.139,3.429 v 0 c -0.553,1.524 -0.481,3.172 0.207,4.643 v 0 c 0.994,2.128 3.154,3.503 5.506,3.503 v 0 c 0.89,0 1.754,-0.192 2.564,-0.572 v 0 c 1.469,-0.686 2.584,-1.904 3.136,-3.428 v 0 c 0.556,-1.525 0.483,-3.173 -0.202,-4.64 v 0 c -0.997,-2.13 -3.158,-3.505 -5.508,-3.505 v 0 c -0.888,0 -1.752,0.191 -2.564,0.57 m 10.064,2.003 c 0.935,2.001 1.033,4.246 0.281,6.323 v 0 c -0.256,0.705 -0.607,1.357 -1.029,1.953 v 0 c 4.56,-2.439 9.063,-5.4 13.471,-8.681 v 0 c -2.897,-6.158 -4.705,-12.37 -4.192,-18.201 v 0 c -6.246,4.043 -12.314,8.672 -17.869,14.042 v 0 c 0.601,-0.138 1.215,-0.21 1.838,-0.21 v 0 c 3.199,0 6.142,1.873 7.5,4.774 m 49.157,-31.275 c -9.843,10.093 -21.447,21.989 -33.915,31.489 v 0 c 1.29,2.588 2.764,5.165 4.321,7.7 v 0 c 10.073,-9.125 19.02,-21.734 27.107,-33.135 v 0 c 3.576,-5.042 6.978,-9.836 10.175,-13.867 v 0 c -2.423,2.417 -4.999,5.057 -7.688,7.813 m 1.753,-7.912 c -11.654,4.67 -26.266,10.528 -40.192,19.189 v 0 c -0.986,5.735 0.705,12.044 3.633,18.365 v 0 c 12.233,-9.37 23.67,-21.088 33.375,-31.038 v 0 c 3.02,-3.096 5.889,-6.031 8.573,-8.688 v 0 c -1.725,0.702 -3.518,1.423 -5.389,2.172" /></clipPath><linearGradient
       id="linearGradient124"
       spreadMethod="pad"
       gradientTransform="matrix(0,133.3291,133.3291,0,268.52734,258.42969)"
       gradientUnits="userSpaceOnUse"
       y2="0"
       x2="1"
       y1="0"
       x1="0"><stop
         id="stop116"
         offset="0"
         style="stop-opacity:1;stop-color:#0c3a84" /><stop
         id="stop118"
         offset="0.117905"
         style="stop-opacity:1;stop-color:#0c3a84" /><stop
         id="stop120"
         offset="0.86026"
         style="stop-opacity:1;stop-color:#1db3b6" /><stop
         id="stop122"
         offset="1"
         style="stop-opacity:1;stop-color:#1db3b6" /></linearGradient><clipPath
       id="clipPath134"
       clipPathUnits="userSpaceOnUse"><path
         id="path132"
         d="M 0,566.93 H 566.93 V 0 H 0 Z" /></clipPath></defs><g
     transform="matrix(1.3333333,0,0,-1.3333333,0,755.90667)"
     id="g10"><g
       id="g12"><g
         clip-path="url(#clipPath18)"
         id="g14"><g
           transform="translate(146.6855,228.123)"
           id="g20"><path
             id="path22"
             style="fill:#0c3a84;fill-opacity:1;fill-rule:nonzero;stroke:none"
             d="M 0,0 C 0,0.827 -0.287,1.835 0.936,1.835 H 1.98 C 2.986,1.835 2.986,1.008 2.986,0.252 2.986,0 2.951,-4.464 2.879,-9.215 h 4.967 c 1.44,1.764 7.127,9.034 8.063,10.294 0.323,0.468 0.685,0.756 1.224,0.756 h 1.549 c 0.539,0 0.898,-0.468 0.574,-0.972 -1.367,-1.655 -6.875,-8.386 -8.962,-11.302 1.727,-2.484 6.19,-8.315 6.911,-9.215 0.649,-0.792 1.043,-0.827 2.375,-0.827 0.433,-1.765 -0.43,-2.521 -1.835,-2.521 -1.367,0 -2.052,0.504 -3.024,1.8 -1.475,2.016 -5.758,7.955 -7.055,9.647 H 2.879 c 0.036,-4.391 0.036,-8.711 0.072,-9.251 0.035,-0.828 0.109,-1.836 -0.935,-1.836 H 0.972 c -1.008,0 -1.008,0.865 -1.008,1.621 C 0.035,-19.114 0,-0.576 0,0" /></g><g
           transform="translate(174.0078,228.0146)"
           id="g24"><path
             id="path26"
             style="fill:#0c3a84;fill-opacity:1;fill-rule:nonzero;stroke:none"
             d="M 0,0 C 0.037,0.828 -0.359,1.943 0.973,1.943 H 1.98 c 1.008,0 1.043,-0.935 1.008,-1.691 -0.144,-4.14 0,-17.206 0,-20.877 0.035,-0.792 0.397,-1.908 -0.935,-1.908 H 1.08 c -1.007,0 -1.043,0.971 -1.007,1.727 C 0.109,-18.934 0,-4.067 0,0" /></g><g
           transform="translate(199.6748,213.9404)"
           id="g28"><path
             id="path30"
             style="fill:#0c3a84;fill-opacity:1;fill-rule:nonzero;stroke:none"
             d="M 0,0 C -1.98,5.363 -4.319,11.879 -4.896,13.606 H -5.111 C -5.651,11.95 -7.919,5.399 -10.007,0 Z m -7.235,14.758 c 0.252,0.792 0.683,1.26 1.691,1.26 h 1.188 c 1.188,0 1.512,-0.54 1.835,-1.476 0.325,-1.08 7.74,-20.877 8.063,-21.957 C 5.724,-8.063 5.471,-8.459 4.714,-8.459 H 3.995 c -1.08,0 -1.117,0.647 -1.26,1.044 -0.396,0.864 -1.296,3.384 -2.015,5.147 h -11.412 c -0.827,-2.196 -1.764,-4.463 -1.944,-5.075 -0.252,-0.864 -0.681,-1.116 -1.222,-1.116 h -1.08 c -0.577,0 -0.829,0.396 -0.541,1.151 0.468,1.548 7.847,20.806 8.244,22.066" /></g><g
           transform="translate(211.8438,228.5908)"
           id="g32"><path
             id="path34"
             style="fill:#0c3a84;fill-opacity:1;fill-rule:nonzero;stroke:none"
             d="m 0,0 c 0.036,0.827 0.215,1.367 1.26,1.367 h 1.295 l 14.218,-18.033 h 0.289 c 0,1.728 -0.144,15.874 -0.144,16.989 0,0.397 0,1.044 0.936,1.044 h 1.043 c 1.009,0 1.044,-0.935 1.044,-1.691 0,-1.98 -0.072,-19.654 0,-20.877 0.036,-0.792 0.396,-1.908 -0.936,-1.908 h -1.044 c -0.899,0 -0.936,0.935 -1.043,1.547 -0.181,1.117 -11.879,15.334 -13.751,17.89 h -0.36 c 0,-2.412 0.18,-17.061 0.216,-17.529 0,-0.792 0.36,-1.908 -0.971,-1.908 H 1.043 c -1.007,0 -1.043,0.971 -1.007,1.727 C 0.072,-19.51 0,-0.576 0,0" /></g><g
           transform="translate(254.7539,213.9404)"
           id="g36"><path
             id="path38"
             style="fill:#0c3a84;fill-opacity:1;fill-rule:nonzero;stroke:none"
             d="M 0,0 C -1.98,5.363 -4.32,11.879 -4.896,13.606 H -5.111 C -5.652,11.95 -7.918,5.399 -10.007,0 Z m -7.236,14.758 c 0.252,0.792 0.683,1.26 1.691,1.26 h 1.19 c 1.187,0 1.511,-0.54 1.834,-1.476 0.324,-1.08 7.74,-20.877 8.064,-21.957 0.18,-0.648 -0.072,-1.044 -0.828,-1.044 H 3.996 c -1.082,0 -1.117,0.647 -1.261,1.044 -0.397,0.864 -1.296,3.384 -2.016,5.147 h -11.41 c -0.829,-2.196 -1.764,-4.463 -1.944,-5.075 -0.252,-0.864 -0.683,-1.116 -1.223,-1.116 h -1.08 c -0.578,0 -0.83,0.396 -0.541,1.151 0.467,1.548 7.847,20.806 8.243,22.066" /></g><g
           transform="translate(286.8301,207.8213)"
           id="g40"><path
             id="path42"
             style="fill:#0c3a84;fill-opacity:1;fill-rule:nonzero;stroke:none"
             d="M 0,0 C 3.311,0 6.119,1.296 6.119,4.644 6.119,7.559 3.779,9.07 0,9.07 H -5.76 V 0 Z m -0.361,11.41 c 3.528,0 5.58,1.656 5.58,4.464 0,2.628 -2.412,3.924 -5.615,3.924 H -5.76 V 11.41 Z m -8.315,9.467 c 0,0.828 0.037,1.26 1.547,1.26 h 6.768 c 6.192,0 8.568,-2.699 8.568,-6.156 0,-4.571 -4.607,-5.47 -4.607,-5.47 v -0.216 c 0,0 5.578,-0.469 5.543,-5.76 C 9.143,0.54 6.371,-2.34 0,-2.34 h -7.414 c -1.19,0 -1.262,0.9 -1.262,1.656 0.109,1.908 0,20.986 0,21.561" /></g><g
           transform="translate(303.4629,228.0146)"
           id="g44"><path
             id="path46"
             style="fill:#0c3a84;fill-opacity:1;fill-rule:nonzero;stroke:none"
             d="m 0,0 c 0,0.828 -0.217,1.943 1.115,1.943 h 13.643 c 0.756,0 0.898,-0.431 0.898,-0.971 V 0.216 c 0,-0.648 -0.215,-0.9 -0.898,-0.9 H 2.951 v -8.495 c 3.203,0 9.36,0.036 10.295,0.036 0.395,0.037 0.72,-0.18 0.72,-0.792 v -0.971 c 0,-0.54 -0.179,-0.685 -0.684,-0.685 -1.079,0 -6.983,0.036 -10.331,0 0,-2.987 0,-5.903 0.036,-8.314 3.096,0 10.402,0 11.735,0.071 0.612,0.036 0.899,-0.323 0.899,-0.972 v -0.971 c 0,-0.613 -0.142,-0.756 -0.899,-0.756 H 1.188 c -0.972,0 -1.117,0.971 -1.081,1.727 C 0.18,-18.934 0,-0.576 0,0" /></g><g
           transform="translate(339.5684,213.9404)"
           id="g48"><path
             id="path50"
             style="fill:#0c3a84;fill-opacity:1;fill-rule:nonzero;stroke:none"
             d="M 0,0 C -1.98,5.363 -4.318,11.879 -4.895,13.606 H -5.109 C -5.65,11.95 -7.918,5.399 -10.006,0 Z m -7.234,14.758 c 0.252,0.792 0.683,1.26 1.691,1.26 h 1.189 c 1.187,0 1.51,-0.54 1.834,-1.476 C -2.195,13.462 5.219,-6.335 5.544,-7.415 5.723,-8.063 5.471,-8.459 4.715,-8.459 H 3.996 c -1.08,0 -1.117,0.647 -1.26,1.044 -0.396,0.864 -1.297,3.384 -2.015,5.147 H -10.69 c -0.828,-2.196 -1.764,-4.463 -1.945,-5.075 -0.252,-0.864 -0.681,-1.116 -1.222,-1.116 h -1.081 c -0.576,0 -0.828,0.396 -0.54,1.151 0.468,1.548 7.847,20.806 8.244,22.066" /></g><g
           transform="translate(350.7656,228.4824)"
           id="g52"><path
             id="path54"
             style="fill:#0c3a84;fill-opacity:1;fill-rule:nonzero;stroke:none"
             d="m 0,0 c 0.037,0.792 0.037,1.476 0.936,1.476 h 1.081 c 1.007,0 0.971,-0.54 0.971,-1.296 -0.037,-0.864 -0.037,-5.939 -0.037,-11.806 0,-5.616 1.584,-9.215 6.875,-9.215 4.934,0 6.695,3.455 6.695,9.286 0,5.616 0.038,10.979 0.038,11.555 0,0.792 -0.038,1.476 0.865,1.476 h 1.043 c 1.008,0 1.115,-0.54 1.079,-1.296 -0.036,-0.864 -0.036,-10.078 -0.108,-11.771 -0.178,-7.091 -2.16,-11.77 -9.647,-11.77 -7.774,0 -9.719,4.607 -9.791,11.735 C -0.071,-6.839 0.037,-0.576 0,0" /></g><g
           transform="translate(383.5254,227.2949)"
           id="g56"><path
             id="path58"
             style="fill:#0c3a84;fill-opacity:1;fill-rule:nonzero;stroke:none"
             d="M 0,0 C -1.043,0 -6.805,0.036 -7.127,0.036 -7.74,0 -7.955,0.288 -7.955,0.972 v 0.864 c 0,0.647 0.143,0.827 0.935,0.827 0,0 15.983,-0.071 17.207,0 0.612,0.036 0.864,-0.323 0.827,-1.008 V 0.756 C 11.014,0.144 10.906,0 10.15,0 H 2.879 C 2.735,-4.968 2.916,-19.401 2.916,-19.905 2.879,-20.697 3.275,-21.813 1.943,-21.813 H 0.898 c -1.005,0 -1.005,0.935 -1.005,1.691 C -0.072,-19.401 0.036,-4.104 0,0" /></g><g
           transform="translate(407.5732,215.7041)"
           id="g60"><path
             id="path62"
             style="fill:#0c3a84;fill-opacity:1;fill-rule:nonzero;stroke:none"
             d="m 0,0 c -1.44,2.376 -8.063,12.311 -8.566,13.03 -0.181,0.288 -0.433,1.224 0.503,1.224 h 1.296 c 0.827,0 1.116,-0.54 1.368,-1.008 0.9,-1.619 5.328,-8.387 6.731,-10.546 h 0.252 c 1.439,2.087 6.407,9.899 6.874,10.762 0.289,0.504 0.541,0.792 1.477,0.792 h 1.115 c 0.648,0 0.9,-0.684 0.576,-1.188 C 10.798,11.915 4.177,1.8 2.916,-0.036 2.952,-1.116 2.88,-7.631 2.952,-8.314 2.987,-9.106 3.347,-10.223 2.015,-10.223 H 1.008 c -1.008,0 -1.116,0.972 -1.044,1.728 C -0.036,-7.523 0,-1.008 0,0" /></g><g
           transform="translate(177.1582,179.2998)"
           id="g64"><path
             id="path66"
             style="fill:#0c3a84;fill-opacity:1;fill-rule:nonzero;stroke:none"
             d="m 0,0 c -0.025,0.504 0.168,0.624 0.624,0.624 h 0.767 c 0.384,0 0.672,-0.023 0.888,-0.624 0.287,-0.768 5.16,-12.001 5.16,-12.001 h 0.193 c 0,0 4.727,11.161 5.041,11.953 0.239,0.696 0.599,0.672 1.056,0.672 h 0.529 c 0.863,0 0.791,-0.456 0.839,-0.84 0.192,-1.848 0.84,-11.953 1.056,-14.689 0.025,-0.408 0.191,-0.792 -0.409,-0.792 h -0.431 c -0.504,0 -0.432,0.36 -0.458,0.719 0.026,0.481 -0.863,12.314 -0.982,14.306 H 13.705 C 13.152,-2.088 9.12,-11.713 8.928,-12.265 8.641,-12.913 8.4,-13.081 7.729,-13.081 H 7.393 c -0.745,0 -0.961,0.143 -1.202,0.672 -0.119,0.36 -4.439,10.489 -4.872,11.761 h -0.12 c -0.119,-3.504 -1.031,-12.673 -1.08,-14.33 0,-0.431 0.024,-0.719 -0.408,-0.719 h -0.455 c -0.455,0 -0.504,0.288 -0.455,0.672 C -1.129,-14.065 -0.025,-0.552 0,0" /></g><g
           transform="translate(206.5811,178.9639)"
           id="g68"><path
             id="path70"
             style="fill:#0c3a84;fill-opacity:1;fill-rule:nonzero;stroke:none"
             d="m 0,0 c 0,0.408 0,0.96 0.624,0.96 h 9.313 c 0.335,0 0.408,-0.216 0.408,-0.432 V 0.24 c 0,-0.336 -0.048,-0.456 -0.385,-0.456 H 1.272 l 0.025,-6.48 c 2.351,0 6.936,0.023 7.584,0.023 0.192,0 0.336,-0.096 0.336,-0.408 v -0.432 c 0,-0.24 -0.097,-0.311 -0.336,-0.311 -0.72,0 -5.161,0.023 -7.609,0 0,-2.233 -0.048,-4.561 -0.024,-6.362 2.208,0 7.609,0 8.642,0.025 0.287,0 0.431,-0.168 0.431,-0.481 v -0.336 c 0,-0.311 -0.072,-0.383 -0.431,-0.383 H 0.576 c -0.432,0 -0.576,0.48 -0.552,0.864 C 0.048,-13.562 -0.024,-0.288 0,0" /></g><g
           transform="translate(229.668,178.5322)"
           id="g72"><path
             id="path74"
             style="fill:#0c3a84;fill-opacity:1;fill-rule:nonzero;stroke:none"
             d="m 0,0 c 0,0.84 -0.166,1.392 0.457,1.392 h 0.36 c 0.72,0 0.384,-0.817 0.384,-1.369 V -1.272 C 1.226,-4.657 1.25,-11.81 1.25,-13.754 c 2.231,0 7.32,0.025 8.184,0.048 0.287,0 0.528,-0.096 0.528,-0.432 v -0.288 c 0,-0.311 -0.168,-0.504 -0.505,-0.504 H 0.77 c -0.53,0 -0.77,0.288 -0.77,0.84 z" /></g><g
           transform="translate(256.1172,164.7783)"
           id="g76"><path
             id="path78"
             style="fill:#0c3a84;fill-opacity:1;fill-rule:nonzero;stroke:none"
             d="M 0,0 C 2.544,0 4.729,0.889 4.729,3.313 4.729,5.425 3,6.505 0,6.505 H -4.272 V 0 Z m -0.096,7.681 c 2.76,0 4.321,1.392 4.321,3.432 0,1.968 -1.944,2.857 -4.37,2.857 h -4.152 l 0.025,-6.289 z m -5.472,6.936 c 0.023,0.408 0.168,0.529 0.912,0.529 h 4.56 c 4.153,0 5.664,-1.777 5.664,-4.033 0,-3.24 -3.119,-3.864 -3.119,-3.864 V 7.104 c 0,0 3.67,-0.287 3.648,-3.791 -0.025,-2.64 -1.849,-4.489 -6.122,-4.489 h -4.752 c -0.696,0 -0.768,0.408 -0.768,0.792 0.047,0.937 -0.023,14.713 -0.023,15.001" /></g><g
           transform="translate(281.125,164.5391)"
           id="g80"><path
             id="path82"
             style="fill:#0c3a84;fill-opacity:1;fill-rule:nonzero;stroke:none"
             d="m 0,0 c 4.104,0 5.834,3.456 5.834,7.248 0,3.912 -1.73,7.201 -5.834,7.201 -4.32,0 -5.929,-3.289 -5.953,-7.201 C -5.977,3.384 -4.369,0 0,0 m 0.047,15.625 c 4.609,0 7.082,-3.624 7.129,-8.4 0.074,-4.801 -2.592,-8.402 -7.248,-8.402 -5.04,0 -7.201,3.576 -7.248,8.402 -0.049,4.727 2.447,8.4 7.367,8.4" /></g><g
           transform="translate(300.7803,179.252)"
           id="g84"><path
             id="path86"
             style="fill:#0c3a84;fill-opacity:1;fill-rule:nonzero;stroke:none"
             d="m 0,0 c 0.024,0.408 0.167,0.672 0.433,0.672 h 0.431 c 0.456,0 0.408,-0.24 0.408,-0.624 -0.024,-0.432 0.024,-3.721 0.024,-8.089 0,-4.008 1.104,-6.672 5.16,-6.672 3.697,0 5.113,2.544 5.113,6.72 0,4.081 -0.025,7.705 -0.025,7.993 0,0.408 0.121,0.672 0.385,0.672 h 0.384 c 0.456,0 0.577,-0.24 0.552,-0.624 -0.023,-0.432 0,-6.937 -0.023,-8.065 -0.073,-4.728 -1.489,-7.873 -6.409,-7.873 -5.017,0 -6.457,3.097 -6.457,7.849 0,3.192 0.048,7.753 0.024,8.041" /></g><g
           transform="translate(332.7246,170.6113)"
           id="g88"><path
             id="path90"
             style="fill:#0c3a84;fill-opacity:1;fill-rule:nonzero;stroke:none"
             d="M 0,0 C 2.807,0 4.896,1.416 4.824,4.2 4.801,6.145 3.193,8.137 0,8.137 H -4.393 C -4.393,6.528 -4.465,0.696 -4.465,0 Z m -5.641,8.521 c -0.025,0.48 0.241,0.792 0.817,0.792 H 0 c 4.008,0 6.096,-2.304 6.168,-5.113 0,-3.216 -2.641,-4.801 -4.464,-5.16 l 3.384,-4.561 c 0.359,-0.503 0.576,-0.551 1.56,-0.551 0.264,-0.673 -0.215,-1.177 -0.912,-1.177 -0.864,0 -1.248,0.36 -1.776,1.104 l -3.528,5.017 h -4.873 c 0,-0.624 -0.047,-3.793 0,-5.089 0.024,-0.672 -0.144,-0.792 -0.455,-0.792 h -0.313 c -0.457,0 -0.48,0.288 -0.48,0.672 0.023,0.937 0.096,14.546 0.048,14.858" /></g><g
           transform="translate(351.875,179.252)"
           id="g92"><path
             id="path94"
             style="fill:#0c3a84;fill-opacity:1;fill-rule:nonzero;stroke:none"
             d="m 0,0 c 0.023,0.408 0.265,0.672 0.673,0.672 h 0.479 l 10.585,-13.177 h 0.193 c 0.047,1.224 -0.073,11.233 -0.073,12.481 0,0.192 -0.047,0.696 0.336,0.696 h 0.481 c 0.455,0 0.504,-0.456 0.504,-0.84 0,-1.944 0,-13.921 0.048,-14.521 0,-0.409 0.168,-0.96 -0.433,-0.96 h -0.455 c -0.432,0 -0.384,0.456 -0.481,0.768 -0.215,0.695 -9.12,11.616 -10.345,13.177 H 1.273 c 0,-1.609 0.048,-12.77 0.071,-12.985 -0.047,-0.409 0.121,-0.96 -0.479,-0.96 H 0.48 c -0.457,0 -0.48,0.48 -0.457,0.864 C 0.049,-13.85 0,-0.288 0,0" /></g><g
           transform="translate(378.6836,178.9639)"
           id="g96"><path
             id="path98"
             style="fill:#0c3a84;fill-opacity:1;fill-rule:nonzero;stroke:none"
             d="m 0,0 c 0,0.408 0,0.96 0.624,0.96 h 9.314 c 0.335,0 0.408,-0.216 0.408,-0.432 V 0.24 c 0,-0.336 -0.049,-0.456 -0.385,-0.456 h -8.69 l 0.026,-6.48 c 2.351,0 6.937,0.023 7.584,0.023 0.191,0 0.336,-0.096 0.336,-0.408 v -0.432 c 0,-0.24 -0.096,-0.311 -0.336,-0.311 -0.72,0 -5.16,0.023 -7.61,0 0,-2.233 -0.046,-4.561 -0.023,-6.362 2.209,0 7.609,0 8.642,0.025 0.287,0 0.43,-0.168 0.43,-0.481 v -0.336 c 0,-0.311 -0.071,-0.383 -0.43,-0.383 H 0.576 c -0.431,0 -0.576,0.48 -0.553,0.864 C 0.049,-13.562 -0.023,-0.288 0,0" /></g><g
           transform="translate(296.5557,380.9883)"
           id="g100"><path
             id="path102"
             style="fill:#1db3b6;fill-opacity:1;fill-rule:nonzero;stroke:none"
             d="m 0,0 c 0.181,-0.03 0.362,-0.045 0.536,-0.045 1.287,0 2.314,0.761 2.498,1.849 C 3.144,2.448 2.931,3.115 2.446,3.635 2.237,3.859 1.985,4.048 1.702,4.196 1.341,4.481 0.915,4.739 0.462,4.959 0.649,4.953 0.849,4.962 1.028,4.944 1.353,4.928 1.651,5.154 1.683,5.484 1.714,5.813 1.472,6.107 1.143,6.14 -0.581,6.305 -2.663,6.005 -4.562,5.31 -4.614,5.29 -4.657,5.257 -4.698,5.226 -7.196,4.254 -9.032,1.782 -9.154,-1.194 c -0.158,-3.933 2.739,-7.256 6.46,-7.407 0.739,-0.031 1.421,0.039 2.043,0.203 l -0.011,-0.011 c -1.165,-1.222 -2.761,-2.896 -1.933,-5.106 0.137,-0.361 0.481,-0.584 0.844,-0.584 0.105,0 0.212,0.019 0.316,0.058 0.465,0.175 0.702,0.693 0.526,1.159 -0.401,1.072 0.353,1.976 1.549,3.231 0.984,1.031 2.332,2.445 1.037,3.843 C 1.505,-5.62 1.272,-5.521 1.003,-5.521 0.749,-5.523 0.506,-5.637 0.338,-5.828 0.321,-5.846 0.21,-5.97 0.052,-6.097 -0.745,-6.738 -1.839,-6.84 -2.62,-6.802 c -2.73,0.111 -4.854,2.594 -4.736,5.534 0.121,2.944 2.453,5.285 5.168,5.136 C -2.026,3.861 -1.856,3.84 -1.687,3.809 -1.983,3.507 -2.192,3.134 -2.265,2.706 -2.478,1.441 -1.485,0.254 0,0" /></g></g></g><g
       id="g104"><g
         clip-path="url(#clipPath110)"
         id="g106"><g
           id="g112"><g
             id="g114"><path
               id="path126"
               style="fill:url(#linearGradient124);stroke:none"
               d="m 281.586,387.746 c -0.398,-0.298 -0.478,-0.861 -0.182,-1.26 v 0 c 0.16,-0.213 0.397,-0.327 0.642,-0.35 v 0 c -3.33,-14.108 -2.238,-28.567 0.827,-42.73 v 0 c -0.002,-0.021 -0.012,-0.04 -0.012,-0.061 v 0 c 0.096,-4.426 -4.822,-11.586 -10.514,-19.877 v 0 c -0.079,-0.116 -0.162,-0.236 -0.242,-0.353 v 0 c -4.557,4.081 -9.623,7.103 -15.337,8.476 v 0 c -11.067,2.659 -23.594,-1.242 -37.231,-11.605 v 0 l 0.012,-0.015 c -0.387,-0.295 -0.523,-0.822 -0.284,-1.26 v 0 c 18.03,-32.958 53.942,-47.348 77.705,-56.869 v 0 c 2.916,-1.168 5.67,-2.272 8.212,-3.335 v 0 c 0.127,-0.053 0.257,-0.077 0.386,-0.077 v 0 c 0.391,0 0.762,0.23 0.922,0.614 v 0 c 0.082,0.195 0.079,0.394 0.039,0.585 v 0 c 0.559,3.94 0.374,8.235 -0.345,12.853 v 0 c 0.081,0.028 0.161,0.062 0.234,0.113 v 0 c 22.742,15.432 6.676,47.621 -5.055,71.125 v 0 c -5.162,10.344 -9.621,19.276 -9.98,24.764 v 0 c -0.038,0.551 -0.5,0.961 -1.065,0.933 v 0 c -0.55,-0.036 -0.968,-0.512 -0.931,-1.063 v 0 c 0.386,-5.89 4.927,-14.99 10.187,-25.527 v 0 c 11.932,-23.906 26.735,-53.598 6.246,-68.189 v 0 c -1.742,9.351 -5.459,19.949 -9.525,31.539 v 0 c -8.859,25.255 -18.901,53.881 -11.992,80.808 v 0 c 0.033,0.125 0.033,0.249 0.02,0.37 v 0 c 2.927,1.638 6.768,2.676 9.98,2.6 v 0 c 6.906,-0.158 10.527,-5.083 11.533,-9.252 v 0 c 0.121,-0.501 0.207,-0.943 0.285,-1.34 v 0 c 0.334,-1.705 0.576,-2.936 2.644,-4.437 v 0 c 1.944,-1.412 3.657,-3.324 4.874,-4.85 v 0 c -2.856,1.185 -7.417,3.171 -11.6,5.313 v 0 c 0.051,1.029 0.394,2.14 0.978,2.81 v 0 l 0.014,-0.036 c 0.201,-0.456 0.731,-0.659 1.186,-0.465 v 0 c 0.455,0.199 0.664,0.729 0.464,1.186 v 0 l -0.452,1.038 c -0.192,0.442 -0.704,0.652 -1.149,0.479 v 0 c -2.006,-0.775 -2.947,-3.407 -2.838,-5.605 v 0 c 0.016,-0.32 0.2,-0.607 0.485,-0.755 v 0 c 3.644,-1.891 7.538,-3.632 10.165,-4.761 v 0 c 2.872,-1.233 4.27,-1.833 5.016,-2.035 v 0 c 0.102,-0.048 0.211,-0.069 0.346,-0.072 v 0 c 0.051,-0.006 0.098,-0.009 0.14,-0.009 v 0 c 0.302,0 0.413,0.15 0.583,0.379 v 0 c 0.264,0.355 0.23,0.851 -0.081,1.168 v 0 c 0,0 -0.001,0.003 -0.002,0.004 v 0 c -0.041,0.054 -0.099,0.137 -0.175,0.246 v 0 c -0.873,1.232 -3.532,4.979 -6.899,7.422 v 0 c -1.492,1.085 -1.622,1.74 -1.934,3.325 v 0 c -0.081,0.422 -0.173,0.888 -0.3,1.417 v 0 c -1.246,5.168 -5.822,10.46 -13.241,10.629 v 0 c -0.138,0.003 -0.276,0.005 -0.416,0.005 v 0 c -4.172,0 -9.166,-1.637 -12.343,-4.013 m 17.193,-106.44 c -6.681,13.865 -14.486,30.05 -25.193,40.43 v 0 c 0.136,0.199 0.273,0.401 0.41,0.599 v 0 c 4.324,6.299 8.207,11.963 9.927,16.537 v 0 c 2.813,-11.477 6.751,-22.714 10.483,-33.356 v 0 c 4.737,-13.503 8.988,-25.638 10.145,-35.862 v 0 c -1.864,3.55 -3.776,7.514 -5.772,11.652 m -49.593,42.432 c 1.127,0.276 2.096,1.043 2.596,2.119 v 0 c 0.439,0.939 0.485,1.992 0.133,2.966 v 0 c -0.226,0.617 -0.606,1.143 -1.087,1.566 v 0 c 1.856,-0.075 3.679,-0.312 5.473,-0.742 v 0 c 5.433,-1.307 10.285,-4.23 14.664,-8.197 v 0 c -1.693,-2.474 -3.434,-5.051 -5.111,-7.695 v 0 c -5.225,4.434 -10.776,7.969 -16.668,9.983 m -3.772,6.369 c -0.262,-0.287 -0.486,-0.611 -0.656,-0.973 v 0 c -0.438,-0.937 -0.483,-1.989 -0.13,-2.962 v 0 c 0.194,-0.535 0.505,-1.003 0.896,-1.396 v 0 c -4.996,1.131 -10.225,1.132 -15.694,-0.344 v 0 c 5.467,3.096 10.643,4.981 15.584,5.675 m 1.98,-4.493 c -0.503,0.235 -0.886,0.65 -1.076,1.172 v 0 c -0.187,0.521 -0.164,1.085 0.071,1.588 v 0 c 0.34,0.728 1.08,1.199 1.884,1.199 v 0 c 0.303,0 0.598,-0.066 0.878,-0.196 v 0 c 0.501,-0.234 0.882,-0.649 1.072,-1.169 v 0 c 0.189,-0.522 0.163,-1.086 -0.073,-1.592 v 0 c -0.341,-0.735 -1.12,-1.185 -1.913,-1.186 v 0 c -0.286,0 -0.573,0.059 -0.843,0.184 M 224,320.114 c 6.359,3.059 12.385,3.988 18.102,3.305 v 0 c -0.952,-0.516 -1.744,-1.316 -2.217,-2.33 v 0 c -0.582,-1.242 -0.645,-2.635 -0.178,-3.925 v 0 c 0.132,-0.361 0.309,-0.697 0.51,-1.014 v 0 c -5.366,2.215 -10.791,3.624 -16.217,3.964 m 19.209,-4.043 c -0.759,0.355 -1.334,0.985 -1.621,1.775 v 0 c -0.285,0.786 -0.246,1.636 0.11,2.396 v 0 c 0.511,1.099 1.628,1.81 2.843,1.81 v 0 c 0.461,0 0.906,-0.099 1.328,-0.296 v 0 c 0.758,-0.353 1.334,-0.983 1.619,-1.771 v 0 c 0.287,-0.787 0.249,-1.641 -0.104,-2.398 v 0 c -0.515,-1.101 -1.632,-1.811 -2.847,-1.811 v 0 c -0.459,0 -0.906,0.099 -1.328,0.295 m 2.063,-2.242 c 1.692,0.248 3.187,1.334 3.924,2.912 v 0 c 0.579,1.242 0.639,2.637 0.173,3.927 v 0 c -0.166,0.454 -0.408,0.861 -0.684,1.242 v 0 c 5.694,-1.936 11.068,-5.386 16.16,-9.766 v 0 c -1.585,-2.565 -3.091,-5.183 -4.422,-7.82 v 0 c -4.941,3.658 -10.009,6.908 -15.151,9.505 m 49.832,-35.008 c -7.927,11.175 -17.135,24.159 -27.723,33.607 v 0 c 1.656,2.617 3.377,5.176 5.054,7.633 v 0 c 10.332,-10.144 17.988,-26.021 24.543,-39.624 v 0 c 2.337,-4.846 4.563,-9.459 6.739,-13.47 v 0 c -2.729,3.561 -5.607,7.62 -8.613,11.854 m -73.241,39.377 c 5.6,-0.065 11.231,-1.366 16.814,-3.586 v 0 c -2.951,-0.23 -5.6,-2.02 -6.862,-4.727 v 0 c -0.717,-1.532 -0.94,-3.206 -0.669,-4.839 v 0 c -3.419,4.009 -6.545,8.38 -9.283,13.152 m 14.876,-17.315 c -1.469,0.686 -2.585,1.904 -3.139,3.429 v 0 c -0.553,1.524 -0.481,3.172 0.207,4.643 v 0 c 0.994,2.128 3.154,3.503 5.506,3.503 v 0 c 0.89,0 1.754,-0.192 2.564,-0.572 v 0 c 1.469,-0.686 2.584,-1.904 3.136,-3.428 v 0 c 0.556,-1.525 0.483,-3.173 -0.202,-4.64 v 0 c -0.997,-2.13 -3.158,-3.505 -5.508,-3.505 v 0 c -0.888,0 -1.752,0.191 -2.564,0.57 m 10.064,2.003 c 0.935,2.001 1.033,4.246 0.281,6.323 v 0 c -0.256,0.705 -0.607,1.357 -1.029,1.953 v 0 c 4.56,-2.439 9.063,-5.4 13.471,-8.681 v 0 c -2.897,-6.158 -4.705,-12.37 -4.192,-18.201 v 0 c -6.246,4.043 -12.314,8.672 -17.869,14.042 v 0 c 0.601,-0.138 1.215,-0.21 1.838,-0.21 v 0 c 3.199,0 6.142,1.873 7.5,4.774 m 49.157,-31.275 c -9.843,10.093 -21.447,21.989 -33.915,31.489 v 0 c 1.29,2.588 2.764,5.165 4.321,7.7 v 0 c 10.073,-9.125 19.02,-21.734 27.107,-33.135 v 0 c 3.576,-5.042 6.978,-9.836 10.175,-13.867 v 0 c -2.423,2.417 -4.999,5.057 -7.688,7.813 m 1.753,-7.912 c -11.654,4.67 -26.266,10.528 -40.192,19.189 v 0 c -0.986,5.735 0.705,12.044 3.633,18.365 v 0 c 12.233,-9.37 23.67,-21.088 33.375,-31.038 v 0 c 3.02,-3.096 5.889,-6.031 8.573,-8.688 v 0 c -1.725,0.702 -3.518,1.423 -5.389,2.172" /></g></g></g></g><g
       id="g128"><g
         clip-path="url(#clipPath134)"
         id="g130"><g
           transform="translate(276.418,400.7656)"
           id="g136"><path
             id="path138"
             style="fill:#1db3b6;fill-opacity:1;fill-rule:nonzero;stroke:none"
             d="M 0,0 C 0.338,0 0.615,-0.28 0.615,-0.625 0.615,-0.97 0.338,-1.25 0,-1.25 c -0.34,0 -0.615,0.28 -0.615,0.625 C -0.615,-0.28 -0.34,0 0,0 M -0.742,-2.869 C -0.811,-4.33 -0.269,-5.836 0.795,-7.081 2.063,-8.566 3.9,-9.485 5.602,-9.485 h 0.015 c 0.49,0.003 0.883,0.396 0.879,0.88 -0.002,0.481 -0.394,0.87 -0.875,0.87 H 5.6 c -1.201,0 -2.532,0.684 -3.474,1.79 -0.837,0.98 -1.208,2.108 -1.089,3.196 0.783,0.388 1.328,1.19 1.328,2.124 0,1.31 -1.062,2.375 -2.365,2.375 -1.305,0 -2.365,-1.065 -2.365,-2.375 0,-1.048 0.683,-1.929 1.623,-2.244" /></g><g
           transform="translate(284.5918,402.2871)"
           id="g140"><path
             id="path142"
             style="fill:#1db3b6;fill-opacity:1;fill-rule:nonzero;stroke:none"
             d="M 0,0 C 0.004,0 0.009,-0.001 0.014,-0.001 0.293,-0.039 0.504,-0.307 0.475,-0.583 0.447,-0.819 0.258,-0.991 0.025,-0.991 l -0.07,0.006 c -0.281,0.038 -0.491,0.306 -0.461,0.586 C -0.48,-0.169 -0.297,0 0,0 m -1.031,-2.469 c -0.367,-2.675 1.394,-5.392 3.426,-6.18 0.103,-0.041 0.21,-0.06 0.316,-0.06 0.35,0 0.68,0.212 0.816,0.559 0.174,0.45 -0.048,0.957 -0.5,1.131 -1.359,0.529 -2.599,2.55 -2.295,4.402 0.788,0.268 1.383,0.969 1.481,1.842 C 2.347,0.44 1.467,1.565 0.253,1.732 -1,1.901 -2.109,1.013 -2.246,-0.21 c -0.102,-0.946 0.412,-1.831 1.215,-2.259" /></g><g
           transform="translate(268.9648,397.1133)"
           id="g144"><path
             id="path146"
             style="fill:#1db3b6;fill-opacity:1;fill-rule:nonzero;stroke:none"
             d="m 0,0 c 0.047,0.007 0.092,0.011 0.137,0.011 0.429,0 0.803,-0.323 0.869,-0.747 C 1.041,-0.97 0.982,-1.202 0.844,-1.393 0.703,-1.582 0.5,-1.705 0.268,-1.74 -0.227,-1.813 -0.664,-1.473 -0.736,-1.002 -0.811,-0.522 -0.479,-0.073 0,0 m -0.387,-3.447 c 0.264,-1.921 1.287,-3.649 2.94,-4.918 1.576,-1.21 3.552,-1.891 5.345,-1.891 0.486,0 0.957,0.05 1.403,0.152 0.47,0.108 0.765,0.578 0.657,1.048 -0.108,0.472 -0.584,0.77 -1.048,0.658 -1.562,-0.357 -3.736,0.227 -5.291,1.421 -0.93,0.713 -2.025,1.938 -2.269,3.785 0.351,0.182 0.662,0.434 0.902,0.762 0.418,0.566 0.588,1.26 0.484,1.957 -0.215,1.404 -1.547,2.419 -3,2.203 -1.433,-0.219 -2.422,-1.563 -2.203,-2.996 0.172,-1.119 1.012,-1.969 2.08,-2.181" /></g></g></g></g></svg>